<svg xmlns="http://www.w3.org/2000/svg" version="1.1" xmlns:xlink="http://www.w3.org/1999/xlink" xmlns:svgjs="http://svgjs.dev/svgjs" width="1440" height="560" preserveAspectRatio="none" viewBox="0 0 1440 560"><g mask="url(&quot;#SvgjsMask1000&quot;)" fill="none"><rect width="1440" height="560" x="0" y="0" fill="#0e2a47"></rect><path d="M3.51 175.23L68.46 212.73L68.46 287.73L3.51 325.23L-61.44 287.73L-61.44 212.73zM68.46 287.73L133.42 325.23L133.42 400.23L68.46 437.73L3.51 400.23L3.51 325.23zM198.37 287.73L263.32 325.23L263.32 400.23L198.37 437.73L133.42 400.23L133.42 325.23zM133.42 400.23L198.37 437.73L198.37 512.73L133.42 550.23L68.46 512.73L68.46 437.73zM263.32 175.23L328.28 212.73L328.28 287.73L263.32 325.23L198.37 287.73L198.37 212.73zM263.32 400.23L328.28 437.73L328.28 512.73L263.32 550.23L198.37 512.73L198.37 437.73zM328.28 512.73L393.23 550.23L393.23 625.23L328.28 662.73L263.32 625.23L263.32 550.23zM458.19 287.73L523.14 325.23L523.14 400.23L458.19 437.73L393.23 400.23L393.23 325.23zM393.23 400.23L458.19 437.73L458.19 512.73L393.23 550.23L328.28 512.73L328.28 437.73zM523.14 175.23L588.09 212.73L588.09 287.73L523.14 325.23L458.19 287.73L458.19 212.73zM523.14 400.23L588.09 437.73L588.09 512.73L523.14 550.23L458.19 512.73L458.19 437.73zM588.09 512.73L653.05 550.23L653.05 625.23L588.09 662.73L523.14 625.23L523.14 550.23zM653.05 -49.77L718 -12.27L718 62.73L653.05 100.23L588.09 62.73L588.09 -12.27zM653.05 175.23L718 212.73L718 287.73L653.05 325.23L588.09 287.73L588.09 212.73zM653.05 400.23L718 437.73L718 512.73L653.05 550.23L588.09 512.73L588.09 437.73zM782.95 -49.77L847.91 -12.27L847.91 62.73L782.95 100.23L718 62.73L718 -12.27zM977.82 62.73L1042.77 100.23L1042.77 175.23L977.82 212.73L912.86 175.23L912.86 100.23zM912.86 400.23L977.82 437.73L977.82 512.73L912.86 550.23L847.91 512.73L847.91 437.73zM1042.77 -49.77L1107.72 -12.27L1107.72 62.73L1042.77 100.23L977.82 62.73L977.82 -12.27zM1107.72 512.73L1172.68 550.23L1172.68 625.23L1107.72 662.73L1042.77 625.23L1042.77 550.23zM1237.63 287.73L1302.58 325.23L1302.58 400.23L1237.63 437.73L1172.68 400.23L1172.68 325.23zM1302.59 -49.77L1367.54 -12.27L1367.54 62.73L1302.59 100.23L1237.63 62.73L1237.63 -12.27zM1367.54 287.73L1432.49 325.23L1432.49 400.23L1367.54 437.73L1302.59 400.23L1302.59 325.23zM1302.59 400.23L1367.54 437.73L1367.54 512.73L1302.59 550.23L1237.63 512.73L1237.63 437.73zM1497.45 62.73L1562.4 100.23L1562.4 175.23L1497.45 212.73L1432.49 175.23L1432.49 100.23zM1432.49 175.23L1497.45 212.73L1497.45 287.73L1432.49 325.23L1367.54 287.73L1367.54 212.73zM1432.49 400.23L1497.45 437.73L1497.45 512.73L1432.49 550.23L1367.54 512.73L1367.54 437.73z" stroke="#03305d" stroke-width="2"></path><path d="M-3.99 175.23 a7.5 7.5 0 1 0 15 0 a7.5 7.5 0 1 0 -15 0zM60.96 212.73 a7.5 7.5 0 1 0 15 0 a7.5 7.5 0 1 0 -15 0zM60.96 287.73 a7.5 7.5 0 1 0 15 0 a7.5 7.5 0 1 0 -15 0zM-3.99 325.23 a7.5 7.5 0 1 0 15 0 a7.5 7.5 0 1 0 -15 0zM-68.94 287.73 a7.5 7.5 0 1 0 15 0 a7.5 7.5 0 1 0 -15 0zM-68.94 212.73 a7.5 7.5 0 1 0 15 0 a7.5 7.5 0 1 0 -15 0zM125.92 325.23 a7.5 7.5 0 1 0 15 0 a7.5 7.5 0 1 0 -15 0zM125.92 400.23 a7.5 7.5 0 1 0 15 0 a7.5 7.5 0 1 0 -15 0zM60.96 437.73 a7.5 7.5 0 1 0 15 0 a7.5 7.5 0 1 0 -15 0zM-3.99 400.23 a7.5 7.5 0 1 0 15 0 a7.5 7.5 0 1 0 -15 0zM190.87 287.73 a7.5 7.5 0 1 0 15 0 a7.5 7.5 0 1 0 -15 0zM255.82 325.23 a7.5 7.5 0 1 0 15 0 a7.5 7.5 0 1 0 -15 0zM255.82 400.23 a7.5 7.5 0 1 0 15 0 a7.5 7.5 0 1 0 -15 0zM190.87 437.73 a7.5 7.5 0 1 0 15 0 a7.5 7.5 0 1 0 -15 0zM190.87 512.73 a7.5 7.5 0 1 0 15 0 a7.5 7.5 0 1 0 -15 0zM125.92 550.23 a7.5 7.5 0 1 0 15 0 a7.5 7.5 0 1 0 -15 0zM60.96 512.73 a7.5 7.5 0 1 0 15 0 a7.5 7.5 0 1 0 -15 0zM255.82 175.23 a7.5 7.5 0 1 0 15 0 a7.5 7.5 0 1 0 -15 0zM320.78 212.73 a7.5 7.5 0 1 0 15 0 a7.5 7.5 0 1 0 -15 0zM320.78 287.73 a7.5 7.5 0 1 0 15 0 a7.5 7.5 0 1 0 -15 0zM190.87 212.73 a7.5 7.5 0 1 0 15 0 a7.5 7.5 0 1 0 -15 0zM320.78 437.73 a7.5 7.5 0 1 0 15 0 a7.5 7.5 0 1 0 -15 0zM320.78 512.73 a7.5 7.5 0 1 0 15 0 a7.5 7.5 0 1 0 -15 0zM255.82 550.23 a7.5 7.5 0 1 0 15 0 a7.5 7.5 0 1 0 -15 0zM385.73 550.23 a7.5 7.5 0 1 0 15 0 a7.5 7.5 0 1 0 -15 0zM385.73 625.23 a7.5 7.5 0 1 0 15 0 a7.5 7.5 0 1 0 -15 0zM320.78 662.73 a7.5 7.5 0 1 0 15 0 a7.5 7.5 0 1 0 -15 0zM255.82 625.23 a7.5 7.5 0 1 0 15 0 a7.5 7.5 0 1 0 -15 0zM450.69 287.73 a7.5 7.5 0 1 0 15 0 a7.5 7.5 0 1 0 -15 0zM515.64 325.23 a7.5 7.5 0 1 0 15 0 a7.5 7.5 0 1 0 -15 0zM515.64 400.23 a7.5 7.5 0 1 0 15 0 a7.5 7.5 0 1 0 -15 0zM450.69 437.73 a7.5 7.5 0 1 0 15 0 a7.5 7.5 0 1 0 -15 0zM385.73 400.23 a7.5 7.5 0 1 0 15 0 a7.5 7.5 0 1 0 -15 0zM385.73 325.23 a7.5 7.5 0 1 0 15 0 a7.5 7.5 0 1 0 -15 0zM450.69 512.73 a7.5 7.5 0 1 0 15 0 a7.5 7.5 0 1 0 -15 0zM515.64 175.23 a7.5 7.5 0 1 0 15 0 a7.5 7.5 0 1 0 -15 0zM580.59 212.73 a7.5 7.5 0 1 0 15 0 a7.5 7.5 0 1 0 -15 0zM580.59 287.73 a7.5 7.5 0 1 0 15 0 a7.5 7.5 0 1 0 -15 0zM450.69 212.73 a7.5 7.5 0 1 0 15 0 a7.5 7.5 0 1 0 -15 0zM580.59 437.73 a7.5 7.5 0 1 0 15 0 a7.5 7.5 0 1 0 -15 0zM580.59 512.73 a7.5 7.5 0 1 0 15 0 a7.5 7.5 0 1 0 -15 0zM515.64 550.23 a7.5 7.5 0 1 0 15 0 a7.5 7.5 0 1 0 -15 0zM645.55 550.23 a7.5 7.5 0 1 0 15 0 a7.5 7.5 0 1 0 -15 0zM645.55 625.23 a7.5 7.5 0 1 0 15 0 a7.5 7.5 0 1 0 -15 0zM580.59 662.73 a7.5 7.5 0 1 0 15 0 a7.5 7.5 0 1 0 -15 0zM515.64 625.23 a7.5 7.5 0 1 0 15 0 a7.5 7.5 0 1 0 -15 0zM645.55 -49.77 a7.5 7.5 0 1 0 15 0 a7.5 7.5 0 1 0 -15 0zM710.5 -12.27 a7.5 7.5 0 1 0 15 0 a7.5 7.5 0 1 0 -15 0zM710.5 62.73 a7.5 7.5 0 1 0 15 0 a7.5 7.5 0 1 0 -15 0zM645.55 100.23 a7.5 7.5 0 1 0 15 0 a7.5 7.5 0 1 0 -15 0zM580.59 62.73 a7.5 7.5 0 1 0 15 0 a7.5 7.5 0 1 0 -15 0zM580.59 -12.27 a7.5 7.5 0 1 0 15 0 a7.5 7.5 0 1 0 -15 0zM645.55 175.23 a7.5 7.5 0 1 0 15 0 a7.5 7.5 0 1 0 -15 0zM710.5 212.73 a7.5 7.5 0 1 0 15 0 a7.5 7.5 0 1 0 -15 0zM710.5 287.73 a7.5 7.5 0 1 0 15 0 a7.5 7.5 0 1 0 -15 0zM645.55 325.23 a7.5 7.5 0 1 0 15 0 a7.5 7.5 0 1 0 -15 0zM645.55 400.23 a7.5 7.5 0 1 0 15 0 a7.5 7.5 0 1 0 -15 0zM710.5 437.73 a7.5 7.5 0 1 0 15 0 a7.5 7.5 0 1 0 -15 0zM710.5 512.73 a7.5 7.5 0 1 0 15 0 a7.5 7.5 0 1 0 -15 0zM775.45 -49.77 a7.5 7.5 0 1 0 15 0 a7.5 7.5 0 1 0 -15 0zM840.41 -12.27 a7.5 7.5 0 1 0 15 0 a7.5 7.5 0 1 0 -15 0zM840.41 62.73 a7.5 7.5 0 1 0 15 0 a7.5 7.5 0 1 0 -15 0zM775.45 100.23 a7.5 7.5 0 1 0 15 0 a7.5 7.5 0 1 0 -15 0zM970.32 62.73 a7.5 7.5 0 1 0 15 0 a7.5 7.5 0 1 0 -15 0zM1035.27 100.23 a7.5 7.5 0 1 0 15 0 a7.5 7.5 0 1 0 -15 0zM1035.27 175.23 a7.5 7.5 0 1 0 15 0 a7.5 7.5 0 1 0 -15 0zM970.32 212.73 a7.5 7.5 0 1 0 15 0 a7.5 7.5 0 1 0 -15 0zM905.36 175.23 a7.5 7.5 0 1 0 15 0 a7.5 7.5 0 1 0 -15 0zM905.36 100.23 a7.5 7.5 0 1 0 15 0 a7.5 7.5 0 1 0 -15 0zM905.36 400.23 a7.5 7.5 0 1 0 15 0 a7.5 7.5 0 1 0 -15 0zM970.32 437.73 a7.5 7.5 0 1 0 15 0 a7.5 7.5 0 1 0 -15 0zM970.32 512.73 a7.5 7.5 0 1 0 15 0 a7.5 7.5 0 1 0 -15 0zM905.36 550.23 a7.5 7.5 0 1 0 15 0 a7.5 7.5 0 1 0 -15 0zM840.41 512.73 a7.5 7.5 0 1 0 15 0 a7.5 7.5 0 1 0 -15 0zM840.41 437.73 a7.5 7.5 0 1 0 15 0 a7.5 7.5 0 1 0 -15 0zM1035.27 -49.77 a7.5 7.5 0 1 0 15 0 a7.5 7.5 0 1 0 -15 0zM1100.22 -12.27 a7.5 7.5 0 1 0 15 0 a7.5 7.5 0 1 0 -15 0zM1100.22 62.73 a7.5 7.5 0 1 0 15 0 a7.5 7.5 0 1 0 -15 0zM970.32 -12.27 a7.5 7.5 0 1 0 15 0 a7.5 7.5 0 1 0 -15 0zM1100.22 512.73 a7.5 7.5 0 1 0 15 0 a7.5 7.5 0 1 0 -15 0zM1165.18 550.23 a7.5 7.5 0 1 0 15 0 a7.5 7.5 0 1 0 -15 0zM1165.18 625.23 a7.5 7.5 0 1 0 15 0 a7.5 7.5 0 1 0 -15 0zM1100.22 662.73 a7.5 7.5 0 1 0 15 0 a7.5 7.5 0 1 0 -15 0zM1035.27 625.23 a7.5 7.5 0 1 0 15 0 a7.5 7.5 0 1 0 -15 0zM1035.27 550.23 a7.5 7.5 0 1 0 15 0 a7.5 7.5 0 1 0 -15 0zM1230.13 287.73 a7.5 7.5 0 1 0 15 0 a7.5 7.5 0 1 0 -15 0zM1295.08 325.23 a7.5 7.5 0 1 0 15 0 a7.5 7.5 0 1 0 -15 0zM1295.08 400.23 a7.5 7.5 0 1 0 15 0 a7.5 7.5 0 1 0 -15 0zM1230.13 437.73 a7.5 7.5 0 1 0 15 0 a7.5 7.5 0 1 0 -15 0zM1165.18 400.23 a7.5 7.5 0 1 0 15 0 a7.5 7.5 0 1 0 -15 0zM1165.18 325.23 a7.5 7.5 0 1 0 15 0 a7.5 7.5 0 1 0 -15 0zM1295.09 -49.77 a7.5 7.5 0 1 0 15 0 a7.5 7.5 0 1 0 -15 0zM1360.04 -12.27 a7.5 7.5 0 1 0 15 0 a7.5 7.5 0 1 0 -15 0zM1360.04 62.73 a7.5 7.5 0 1 0 15 0 a7.5 7.5 0 1 0 -15 0zM1295.09 100.23 a7.5 7.5 0 1 0 15 0 a7.5 7.5 0 1 0 -15 0zM1230.13 62.73 a7.5 7.5 0 1 0 15 0 a7.5 7.5 0 1 0 -15 0zM1230.13 -12.27 a7.5 7.5 0 1 0 15 0 a7.5 7.5 0 1 0 -15 0zM1360.04 287.73 a7.5 7.5 0 1 0 15 0 a7.5 7.5 0 1 0 -15 0zM1424.99 325.23 a7.5 7.5 0 1 0 15 0 a7.5 7.5 0 1 0 -15 0zM1424.99 400.23 a7.5 7.5 0 1 0 15 0 a7.5 7.5 0 1 0 -15 0zM1360.04 437.73 a7.5 7.5 0 1 0 15 0 a7.5 7.5 0 1 0 -15 0zM1295.09 400.23 a7.5 7.5 0 1 0 15 0 a7.5 7.5 0 1 0 -15 0zM1295.09 325.23 a7.5 7.5 0 1 0 15 0 a7.5 7.5 0 1 0 -15 0zM1360.04 512.73 a7.5 7.5 0 1 0 15 0 a7.5 7.5 0 1 0 -15 0zM1295.09 550.23 a7.5 7.5 0 1 0 15 0 a7.5 7.5 0 1 0 -15 0zM1230.13 512.73 a7.5 7.5 0 1 0 15 0 a7.5 7.5 0 1 0 -15 0zM1489.95 62.73 a7.5 7.5 0 1 0 15 0 a7.5 7.5 0 1 0 -15 0zM1554.9 100.23 a7.5 7.5 0 1 0 15 0 a7.5 7.5 0 1 0 -15 0zM1554.9 175.23 a7.5 7.5 0 1 0 15 0 a7.5 7.5 0 1 0 -15 0zM1489.95 212.73 a7.5 7.5 0 1 0 15 0 a7.5 7.5 0 1 0 -15 0zM1424.99 175.23 a7.5 7.5 0 1 0 15 0 a7.5 7.5 0 1 0 -15 0zM1424.99 100.23 a7.5 7.5 0 1 0 15 0 a7.5 7.5 0 1 0 -15 0zM1489.95 287.73 a7.5 7.5 0 1 0 15 0 a7.5 7.5 0 1 0 -15 0zM1360.04 212.73 a7.5 7.5 0 1 0 15 0 a7.5 7.5 0 1 0 -15 0zM1489.95 437.73 a7.5 7.5 0 1 0 15 0 a7.5 7.5 0 1 0 -15 0zM1489.95 512.73 a7.5 7.5 0 1 0 15 0 a7.5 7.5 0 1 0 -15 0zM1424.99 550.23 a7.5 7.5 0 1 0 15 0 a7.5 7.5 0 1 0 -15 0z" fill="#03305d"></path><path d="M25 -13.33L68.3 11.67L68.3 61.67L25 86.67L-18.3 61.67L-18.3 11.67zM25 136.67L68.3 161.67L68.3 211.67L25 236.67L-18.3 211.67L-18.3 161.67zM25 286.67L68.3 311.67L68.3 361.67L25 386.67L-18.3 361.67L-18.3 311.67zM68.3 361.67L111.61 386.67L111.61 436.67L68.3 461.67L25 436.67L25 386.67zM154.91 61.67L198.21 86.67L198.21 136.67L154.91 161.67L111.61 136.67L111.61 86.67zM111.61 436.67L154.91 461.67L154.91 511.67L111.61 536.67L68.3 511.67L68.3 461.67zM154.91 511.67L198.21 536.67L198.21 586.67L154.91 611.67L111.61 586.67L111.61 536.67zM198.21 -13.33L241.51 11.67L241.51 61.67L198.21 86.67L154.91 61.67L154.91 11.67zM241.51 361.67L284.81 386.67L284.81 436.67L241.51 461.67L198.21 436.67L198.21 386.67zM198.21 436.67L241.51 461.67L241.51 511.67L198.21 536.67L154.91 511.67L154.91 461.67zM284.81 286.67L328.12 311.67L328.12 361.67L284.81 386.67L241.51 361.67L241.51 311.67zM284.81 436.67L328.12 461.67L328.12 511.67L284.81 536.67L241.51 511.67L241.51 461.67zM371.42 -13.33L414.72 11.67L414.72 61.67L371.42 86.67L328.12 61.67L328.12 11.67zM414.72 61.67L458.03 86.67L458.03 136.67L414.72 161.67L371.42 136.67L371.42 86.67zM371.42 136.67L414.72 161.67L414.72 211.67L371.42 236.67L328.12 211.67L328.12 161.67zM414.72 361.67L458.03 386.67L458.03 436.67L414.72 461.67L371.42 436.67L371.42 386.67zM501.33 61.67L544.63 86.67L544.63 136.67L501.33 161.67L458.03 136.67L458.03 86.67zM458.03 136.67L501.33 161.67L501.33 211.67L458.03 236.67L414.72 211.67L414.72 161.67zM458.03 286.67L501.33 311.67L501.33 361.67L458.03 386.67L414.72 361.67L414.72 311.67zM544.63 -13.33L587.93 11.67L587.93 61.67L544.63 86.67L501.33 61.67L501.33 11.67zM544.63 136.67L587.93 161.67L587.93 211.67L544.63 236.67L501.33 211.67L501.33 161.67zM587.93 211.67L631.24 236.67L631.24 286.67L587.93 311.67L544.63 286.67L544.63 236.67zM631.24 -13.33L674.54 11.67L674.54 61.67L631.24 86.67L587.93 61.67L587.93 11.67zM674.54 61.67L717.84 86.67L717.84 136.67L674.54 161.67L631.24 136.67L631.24 86.67zM674.54 211.67L717.84 236.67L717.84 286.67L674.54 311.67L631.24 286.67L631.24 236.67zM674.54 361.67L717.84 386.67L717.84 436.67L674.54 461.67L631.24 436.67L631.24 386.67zM674.54 511.67L717.84 536.67L717.84 586.67L674.54 611.67L631.24 586.67L631.24 536.67zM717.84 136.67L761.14 161.67L761.14 211.67L717.84 236.67L674.54 211.67L674.54 161.67zM761.14 361.67L804.45 386.67L804.45 436.67L761.14 461.67L717.84 436.67L717.84 386.67zM717.84 436.67L761.14 461.67L761.14 511.67L717.84 536.67L674.54 511.67L674.54 461.67zM761.14 511.67L804.45 536.67L804.45 586.67L761.14 611.67L717.84 586.67L717.84 536.67zM804.45 -13.33L847.75 11.67L847.75 61.67L804.45 86.67L761.14 61.67L761.14 11.67zM847.75 61.67L891.05 86.67L891.05 136.67L847.75 161.67L804.45 136.67L804.45 86.67zM847.75 211.67L891.05 236.67L891.05 286.67L847.75 311.67L804.45 286.67L804.45 236.67zM847.75 511.67L891.05 536.67L891.05 586.67L847.75 611.67L804.45 586.67L804.45 536.67zM934.35 61.67L977.66 86.67L977.66 136.67L934.35 161.67L891.05 136.67L891.05 86.67zM891.05 286.67L934.35 311.67L934.35 361.67L891.05 386.67L847.75 361.67L847.75 311.67zM891.05 436.67L934.35 461.67L934.35 511.67L891.05 536.67L847.75 511.67L847.75 461.67zM977.66 136.67L1020.96 161.67L1020.96 211.67L977.66 236.67L934.35 211.67L934.35 161.67zM1020.96 211.67L1064.26 236.67L1064.26 286.67L1020.96 311.67L977.66 286.67L977.66 236.67zM1020.96 361.67L1064.26 386.67L1064.26 436.67L1020.96 461.67L977.66 436.67L977.66 386.67zM1107.56 511.67L1150.87 536.67L1150.87 586.67L1107.56 611.67L1064.26 586.67L1064.26 536.67zM1150.87 -13.33L1194.17 11.67L1194.17 61.67L1150.87 86.67L1107.56 61.67L1107.56 11.67zM1194.17 211.67L1237.47 236.67L1237.47 286.67L1194.17 311.67L1150.87 286.67L1150.87 236.67zM1150.87 286.67L1194.17 311.67L1194.17 361.67L1150.87 386.67L1107.56 361.67L1107.56 311.67zM1280.77 361.67L1324.08 386.67L1324.08 436.67L1280.77 461.67L1237.47 436.67L1237.47 386.67zM1237.47 436.67L1280.77 461.67L1280.77 511.67L1237.47 536.67L1194.17 511.67L1194.17 461.67zM1367.38 211.67L1410.68 236.67L1410.68 286.67L1367.38 311.67L1324.08 286.67L1324.08 236.67zM1367.38 361.67L1410.68 386.67L1410.68 436.67L1367.38 461.67L1324.08 436.67L1324.08 386.67zM1410.68 -13.33L1453.98 11.67L1453.98 61.67L1410.68 86.67L1367.38 61.67L1367.38 11.67zM1410.68 436.67L1453.98 461.67L1453.98 511.67L1410.68 536.67L1367.38 511.67L1367.38 461.67zM1453.98 511.67L1497.29 536.67L1497.29 586.67L1453.98 611.67L1410.68 586.67L1410.68 536.67z" stroke="rgba(6, 80, 156, 0.93)" stroke-width="2"></path></g><defs><mask id="SvgjsMask1000"><rect width="1440" height="560" fill="#ffffff"></rect></mask></defs></svg>