<svg xmlns="http://www.w3.org/2000/svg" version="1.1" xmlns:xlink="http://www.w3.org/1999/xlink" xmlns:svgjs="http://svgjs.dev/svgjs" width="1440" height="560" preserveAspectRatio="none" viewBox="0 0 1440 560"><g mask="url(&quot;#SvgjsMask1000&quot;)" fill="none"><rect width="1440" height="560" x="0" y="0" fill="#0e2a47"></rect><path d="M-68.39 339.87L-68.39 339.87" stroke="#132e65" stroke-width="1.5"></path><path d="M-68.39 339.87L49.1 344.42" stroke="#132e65" stroke-width="1.5"></path><path d="M-68.39 339.87L-60.62 551.06" stroke="#132e65" stroke-width="1.5"></path><path d="M-68.39 339.87L50.49 549.77" stroke="#132e65" stroke-width="1.5"></path><path d="M-68.39 339.87L219.34 408.21" stroke="#132e65" stroke-width="1.5"></path><path d="M-68.39 339.87L-51.4 682.76" stroke="#132e65" stroke-width="1.5"></path><path d="M-68.39 339.87L38.47 709.68" stroke="#132e65" stroke-width="1.5"></path><path d="M-60.62 551.06L-60.62 551.06" stroke="#132e65" stroke-width="1.5"></path><path d="M-60.62 551.06L50.49 549.77" stroke="#132e65" stroke-width="1.5"></path><path d="M-60.62 551.06L-51.4 682.76" stroke="#132e65" stroke-width="1.5"></path><path d="M-60.62 551.06L38.47 709.68" stroke="#132e65" stroke-width="1.5"></path><path d="M-60.62 551.06L49.1 344.42" stroke="#132e65" stroke-width="1.5"></path><path d="M-60.62 551.06L206.72 643.8" stroke="#132e65" stroke-width="1.5"></path><path d="M-51.4 682.76L-51.4 682.76" stroke="#132e65" stroke-width="1.5"></path><path d="M-51.4 682.76L38.47 709.68" stroke="#132e65" stroke-width="1.5"></path><path d="M-51.4 682.76L50.49 549.77" stroke="#132e65" stroke-width="1.5"></path><path d="M-51.4 682.76L206.72 643.8" stroke="#132e65" stroke-width="1.5"></path><path d="M-51.4 682.76L259.06 558.55" stroke="#132e65" stroke-width="1.5"></path><path d="M49.1 344.42L49.1 344.42" stroke="#132e65" stroke-width="1.5"></path><path d="M49.1 344.42L219.34 408.21" stroke="#132e65" stroke-width="1.5"></path><path d="M49.1 344.42L50.49 549.77" stroke="#132e65" stroke-width="1.5"></path><path d="M50.49 549.77L50.49 549.77" stroke="#132e65" stroke-width="1.5"></path><path d="M50.49 549.77L38.47 709.68" stroke="#132e65" stroke-width="1.5"></path><path d="M38.47 709.68L38.47 709.68" stroke="#132e65" stroke-width="1.5"></path><path d="M38.47 709.68L206.72 643.8" stroke="#132e65" stroke-width="1.5"></path><path d="M219.34 408.21L219.34 408.21" stroke="#132e65" stroke-width="1.5"></path><path d="M219.34 408.21L374.06 396.38" stroke="#132e65" stroke-width="1.5"></path><path d="M219.34 408.21L259.06 558.55" stroke="#132e65" stroke-width="1.5"></path><path d="M219.34 408.21L350.02 493.85" stroke="#132e65" stroke-width="1.5"></path><path d="M219.34 408.21L50.49 549.77" stroke="#132e65" stroke-width="1.5"></path><path d="M259.06 558.55L259.06 558.55" stroke="#132e65" stroke-width="1.5"></path><path d="M259.06 558.55L206.72 643.8" stroke="#132e65" stroke-width="1.5"></path><path d="M259.06 558.55L350.02 493.85" stroke="#132e65" stroke-width="1.5"></path><path d="M259.06 558.55L404.62 679.9" stroke="#132e65" stroke-width="1.5"></path><path d="M259.06 558.55L374.06 396.38" stroke="#132e65" stroke-width="1.5"></path><path d="M259.06 558.55L50.49 549.77" stroke="#132e65" stroke-width="1.5"></path><path d="M206.72 643.8L206.72 643.8" stroke="#132e65" stroke-width="1.5"></path><path d="M206.72 643.8L50.49 549.77" stroke="#132e65" stroke-width="1.5"></path><path d="M206.72 643.8L404.62 679.9" stroke="#132e65" stroke-width="1.5"></path><path d="M374.06 396.38L374.06 396.38" stroke="#132e65" stroke-width="1.5"></path><path d="M374.06 396.38L350.02 493.85" stroke="#132e65" stroke-width="1.5"></path><path d="M374.06 396.38L534.64 499.87" stroke="#132e65" stroke-width="1.5"></path><path d="M374.06 396.38L404.62 679.9" stroke="#132e65" stroke-width="1.5"></path><path d="M350.02 493.85L350.02 493.85" stroke="#132e65" stroke-width="1.5"></path><path d="M350.02 493.85L534.64 499.87" stroke="#132e65" stroke-width="1.5"></path><path d="M404.62 679.9L404.62 679.9" stroke="#132e65" stroke-width="1.5"></path><path d="M404.62 679.9L502.2 657.28" stroke="#132e65" stroke-width="1.5"></path><path d="M404.62 679.9L350.02 493.85" stroke="#132e65" stroke-width="1.5"></path><path d="M404.62 679.9L534.64 499.87" stroke="#132e65" stroke-width="1.5"></path><path d="M534.64 499.87L534.64 499.87" stroke="#132e65" stroke-width="1.5"></path><path d="M534.64 499.87L647.62 497.87" stroke="#132e65" stroke-width="1.5"></path><path d="M534.64 499.87L502.2 657.28" stroke="#132e65" stroke-width="1.5"></path><path d="M502.2 657.28L502.2 657.28" stroke="#132e65" stroke-width="1.5"></path><path d="M502.2 657.28L685.57 668.06" stroke="#132e65" stroke-width="1.5"></path><path d="M502.2 657.28L647.62 497.87" stroke="#132e65" stroke-width="1.5"></path><path d="M502.2 657.28L350.02 493.85" stroke="#132e65" stroke-width="1.5"></path><path d="M502.2 657.28L259.06 558.55" stroke="#132e65" stroke-width="1.5"></path><path d="M647.62 497.87L647.62 497.87" stroke="#132e65" stroke-width="1.5"></path><path d="M647.62 497.87L801.89 544.52" stroke="#132e65" stroke-width="1.5"></path><path d="M647.62 497.87L685.57 668.06" stroke="#132e65" stroke-width="1.5"></path><path d="M685.57 668.06L685.57 668.06" stroke="#132e65" stroke-width="1.5"></path><path d="M685.57 668.06L847.19 685.46" stroke="#132e65" stroke-width="1.5"></path><path d="M685.57 668.06L801.89 544.52" stroke="#132e65" stroke-width="1.5"></path><path d="M792.36 253.75L792.36 253.75" stroke="#132e65" stroke-width="1.5"></path><path d="M792.36 253.75L813.9 358.19" stroke="#132e65" stroke-width="1.5"></path><path d="M792.36 253.75L979.05 407.04" stroke="#132e65" stroke-width="1.5"></path><path d="M792.36 253.75L978.4 72.43" stroke="#132e65" stroke-width="1.5"></path><path d="M813.9 358.19L813.9 358.19" stroke="#132e65" stroke-width="1.5"></path><path d="M813.9 358.19L979.05 407.04" stroke="#132e65" stroke-width="1.5"></path><path d="M813.9 358.19L801.89 544.52" stroke="#132e65" stroke-width="1.5"></path><path d="M813.9 358.19L647.62 497.87" stroke="#132e65" stroke-width="1.5"></path><path d="M813.9 358.19L954.17 555.97" stroke="#132e65" stroke-width="1.5"></path><path d="M801.89 544.52L801.89 544.52" stroke="#132e65" stroke-width="1.5"></path><path d="M801.89 544.52L847.19 685.46" stroke="#132e65" stroke-width="1.5"></path><path d="M801.89 544.52L954.17 555.97" stroke="#132e65" stroke-width="1.5"></path><path d="M847.19 685.46L847.19 685.46" stroke="#132e65" stroke-width="1.5"></path><path d="M847.19 685.46L977.73 688.05" stroke="#132e65" stroke-width="1.5"></path><path d="M972.68 -72.28L972.68 -72.28" stroke="#132e65" stroke-width="1.5"></path><path d="M972.68 -72.28L978.4 72.43" stroke="#132e65" stroke-width="1.5"></path><path d="M972.68 -72.28L1139.53 -63.47" stroke="#132e65" stroke-width="1.5"></path><path d="M972.68 -72.28L1131.37 45.39" stroke="#132e65" stroke-width="1.5"></path><path d="M972.68 -72.28L1267.87 -46.71" stroke="#132e65" stroke-width="1.5"></path><path d="M972.68 -72.28L1130.19 192.03" stroke="#132e65" stroke-width="1.5"></path><path d="M972.68 -72.28L1271.89 105.72" stroke="#132e65" stroke-width="1.5"></path><path d="M978.4 72.43L978.4 72.43" stroke="#132e65" stroke-width="1.5"></path><path d="M978.4 72.43L1131.37 45.39" stroke="#132e65" stroke-width="1.5"></path><path d="M979.05 407.04L979.05 407.04" stroke="#132e65" stroke-width="1.5"></path><path d="M979.05 407.04L954.17 555.97" stroke="#132e65" stroke-width="1.5"></path><path d="M979.05 407.04L1119.4 519.25" stroke="#132e65" stroke-width="1.5"></path><path d="M979.05 407.04L1161.66 385.96" stroke="#132e65" stroke-width="1.5"></path><path d="M954.17 555.97L954.17 555.97" stroke="#132e65" stroke-width="1.5"></path><path d="M954.17 555.97L977.73 688.05" stroke="#132e65" stroke-width="1.5"></path><path d="M977.73 688.05L977.73 688.05" stroke="#132e65" stroke-width="1.5"></path><path d="M977.73 688.05L1094.23 647.91" stroke="#132e65" stroke-width="1.5"></path><path d="M1139.53 -63.47L1139.53 -63.47" stroke="#132e65" stroke-width="1.5"></path><path d="M1139.53 -63.47L1131.37 45.39" stroke="#132e65" stroke-width="1.5"></path><path d="M1139.53 -63.47L1267.87 -46.71" stroke="#132e65" stroke-width="1.5"></path><path d="M1139.53 -63.47L978.4 72.43" stroke="#132e65" stroke-width="1.5"></path><path d="M1139.53 -63.47L1271.89 105.72" stroke="#132e65" stroke-width="1.5"></path><path d="M1131.37 45.39L1131.37 45.39" stroke="#132e65" stroke-width="1.5"></path><path d="M1131.37 45.39L1130.19 192.03" stroke="#132e65" stroke-width="1.5"></path><path d="M1131.37 45.39L1271.89 105.72" stroke="#132e65" stroke-width="1.5"></path><path d="M1130.19 192.03L1130.19 192.03" stroke="#132e65" stroke-width="1.5"></path><path d="M1130.19 192.03L1238.22 217.61" stroke="#132e65" stroke-width="1.5"></path><path d="M1130.19 192.03L1271.89 105.72" stroke="#132e65" stroke-width="1.5"></path><path d="M1130.19 192.03L978.4 72.43" stroke="#132e65" stroke-width="1.5"></path><path d="M1161.66 385.96L1161.66 385.96" stroke="#132e65" stroke-width="1.5"></path><path d="M1161.66 385.96L1119.4 519.25" stroke="#132e65" stroke-width="1.5"></path><path d="M1161.66 385.96L1306.3 378.83" stroke="#132e65" stroke-width="1.5"></path><path d="M1161.66 385.96L1263.19 500.87" stroke="#132e65" stroke-width="1.5"></path><path d="M1119.4 519.25L1119.4 519.25" stroke="#132e65" stroke-width="1.5"></path><path d="M1119.4 519.25L1094.23 647.91" stroke="#132e65" stroke-width="1.5"></path><path d="M1119.4 519.25L1263.19 500.87" stroke="#132e65" stroke-width="1.5"></path><path d="M1119.4 519.25L954.17 555.97" stroke="#132e65" stroke-width="1.5"></path><path d="M1119.4 519.25L977.73 688.05" stroke="#132e65" stroke-width="1.5"></path><path d="M1094.23 647.91L1094.23 647.91" stroke="#132e65" stroke-width="1.5"></path><path d="M1094.23 647.91L954.17 555.97" stroke="#132e65" stroke-width="1.5"></path><path d="M1094.23 647.91L1263.19 500.87" stroke="#132e65" stroke-width="1.5"></path><path d="M1094.23 647.91L847.19 685.46" stroke="#132e65" stroke-width="1.5"></path><path d="M1094.23 647.91L979.05 407.04" stroke="#132e65" stroke-width="1.5"></path><path d="M1267.87 -46.71L1267.87 -46.71" stroke="#132e65" stroke-width="1.5"></path><path d="M1267.87 -46.71L1271.89 105.72" stroke="#132e65" stroke-width="1.5"></path><path d="M1267.87 -46.71L1131.37 45.39" stroke="#132e65" stroke-width="1.5"></path><path d="M1267.87 -46.71L1459.3 -69.27" stroke="#132e65" stroke-width="1.5"></path><path d="M1267.87 -46.71L1417.05 82.99" stroke="#132e65" stroke-width="1.5"></path><path d="M1267.87 -46.71L1238.22 217.61" stroke="#132e65" stroke-width="1.5"></path><path d="M1271.89 105.72L1271.89 105.72" stroke="#132e65" stroke-width="1.5"></path><path d="M1271.89 105.72L1238.22 217.61" stroke="#132e65" stroke-width="1.5"></path><path d="M1271.89 105.72L1417.05 82.99" stroke="#132e65" stroke-width="1.5"></path><path d="M1238.22 217.61L1238.22 217.61" stroke="#132e65" stroke-width="1.5"></path><path d="M1238.22 217.61L1398.98 188.91" stroke="#132e65" stroke-width="1.5"></path><path d="M1238.22 217.61L1306.3 378.83" stroke="#132e65" stroke-width="1.5"></path><path d="M1306.3 378.83L1306.3 378.83" stroke="#132e65" stroke-width="1.5"></path><path d="M1306.3 378.83L1432.3 395.85" stroke="#132e65" stroke-width="1.5"></path><path d="M1306.3 378.83L1263.19 500.87" stroke="#132e65" stroke-width="1.5"></path><path d="M1263.19 500.87L1263.19 500.87" stroke="#132e65" stroke-width="1.5"></path><path d="M1263.19 500.87L1398.23 535.48" stroke="#132e65" stroke-width="1.5"></path><path d="M1459.3 -69.27L1459.3 -69.27" stroke="#132e65" stroke-width="1.5"></path><path d="M1459.3 -69.27L1581.04 -102.6" stroke="#132e65" stroke-width="1.5"></path><path d="M1459.3 -69.27L1417.05 82.99" stroke="#132e65" stroke-width="1.5"></path><path d="M1459.3 -69.27L1602.54 60.45" stroke="#132e65" stroke-width="1.5"></path><path d="M1459.3 -69.27L1271.89 105.72" stroke="#132e65" stroke-width="1.5"></path><path d="M1417.05 82.99L1417.05 82.99" stroke="#132e65" stroke-width="1.5"></path><path d="M1417.05 82.99L1398.98 188.91" stroke="#132e65" stroke-width="1.5"></path><path d="M1417.05 82.99L1602.54 60.45" stroke="#132e65" stroke-width="1.5"></path><path d="M1417.05 82.99L1238.22 217.61" stroke="#132e65" stroke-width="1.5"></path><path d="M1398.98 188.91L1398.98 188.91" stroke="#132e65" stroke-width="1.5"></path><path d="M1398.98 188.91L1271.89 105.72" stroke="#132e65" stroke-width="1.5"></path><path d="M1398.98 188.91L1598.18 241.86" stroke="#132e65" stroke-width="1.5"></path><path d="M1398.98 188.91L1432.3 395.85" stroke="#132e65" stroke-width="1.5"></path><path d="M1398.98 188.91L1306.3 378.83" stroke="#132e65" stroke-width="1.5"></path><path d="M1432.3 395.85L1432.3 395.85" stroke="#132e65" stroke-width="1.5"></path><path d="M1432.3 395.85L1398.23 535.48" stroke="#132e65" stroke-width="1.5"></path><path d="M1432.3 395.85L1611.14 342.85" stroke="#132e65" stroke-width="1.5"></path><path d="M1432.3 395.85L1567.99 526.45" stroke="#132e65" stroke-width="1.5"></path><path d="M1432.3 395.85L1263.19 500.87" stroke="#132e65" stroke-width="1.5"></path><path d="M1398.23 535.48L1398.23 535.48" stroke="#132e65" stroke-width="1.5"></path><path d="M1398.23 535.48L1567.99 526.45" stroke="#132e65" stroke-width="1.5"></path><path d="M1398.23 535.48L1399.68 711.87" stroke="#132e65" stroke-width="1.5"></path><path d="M1398.23 535.48L1306.3 378.83" stroke="#132e65" stroke-width="1.5"></path><path d="M1398.23 535.48L1578.95 695.79" stroke="#132e65" stroke-width="1.5"></path><path d="M1399.68 711.87L1399.68 711.87" stroke="#132e65" stroke-width="1.5"></path><path d="M1399.68 711.87L1578.95 695.79" stroke="#132e65" stroke-width="1.5"></path><path d="M1399.68 711.87L1567.99 526.45" stroke="#132e65" stroke-width="1.5"></path><path d="M1399.68 711.87L1263.19 500.87" stroke="#132e65" stroke-width="1.5"></path><path d="M1399.68 711.87L1094.23 647.91" stroke="#132e65" stroke-width="1.5"></path><path d="M1581.04 -102.6L1581.04 -102.6" stroke="#132e65" stroke-width="1.5"></path><path d="M1581.04 -102.6L1602.54 60.45" stroke="#132e65" stroke-width="1.5"></path><path d="M1581.04 -102.6L1417.05 82.99" stroke="#132e65" stroke-width="1.5"></path><path d="M1581.04 -102.6L1267.87 -46.71" stroke="#132e65" stroke-width="1.5"></path><path d="M1581.04 -102.6L1398.98 188.91" stroke="#132e65" stroke-width="1.5"></path><path d="M1581.04 -102.6L1598.18 241.86" stroke="#132e65" stroke-width="1.5"></path><path d="M1602.54 60.45L1602.54 60.45" stroke="#132e65" stroke-width="1.5"></path><path d="M1602.54 60.45L1598.18 241.86" stroke="#132e65" stroke-width="1.5"></path><path d="M1598.18 241.86L1598.18 241.86" stroke="#132e65" stroke-width="1.5"></path><path d="M1598.18 241.86L1611.14 342.85" stroke="#132e65" stroke-width="1.5"></path><path d="M1598.18 241.86L1432.3 395.85" stroke="#132e65" stroke-width="1.5"></path><path d="M1598.18 241.86L1417.05 82.99" stroke="#132e65" stroke-width="1.5"></path><path d="M1598.18 241.86L1567.99 526.45" stroke="#132e65" stroke-width="1.5"></path><path d="M1611.14 342.85L1611.14 342.85" stroke="#132e65" stroke-width="1.5"></path><path d="M1611.14 342.85L1567.99 526.45" stroke="#132e65" stroke-width="1.5"></path><path d="M1611.14 342.85L1398.98 188.91" stroke="#132e65" stroke-width="1.5"></path><path d="M1611.14 342.85L1602.54 60.45" stroke="#132e65" stroke-width="1.5"></path><path d="M1611.14 342.85L1398.23 535.48" stroke="#132e65" stroke-width="1.5"></path><path d="M1567.99 526.45L1567.99 526.45" stroke="#132e65" stroke-width="1.5"></path><path d="M1567.99 526.45L1578.95 695.79" stroke="#132e65" stroke-width="1.5"></path><path d="M1578.95 695.79L1578.95 695.79" stroke="#132e65" stroke-width="1.5"></path><circle r="5" cx="-68.39" cy="339.87" fill="#132e65"></circle><circle r="5" cx="-60.62" cy="551.06" fill="#132e65"></circle><circle r="5" cx="-51.4" cy="682.76" fill="#132e65"></circle><circle r="5" cx="49.1" cy="344.42" fill="#132e65"></circle><circle r="5" cx="50.49" cy="549.77" fill="#132e65"></circle><circle r="5" cx="38.47" cy="709.68" fill="#132e65"></circle><circle r="5" cx="219.34" cy="408.21" fill="#132e65"></circle><circle r="5" cx="259.06" cy="558.55" fill="#132e65"></circle><circle r="5" cx="206.72" cy="643.8" fill="#132e65"></circle><circle r="5" cx="374.06" cy="396.38" fill="#132e65"></circle><circle r="5" cx="350.02" cy="493.85" fill="#132e65"></circle><circle r="5" cx="404.62" cy="679.9" fill="#132e65"></circle><circle r="5" cx="534.64" cy="499.87" fill="#132e65"></circle><circle r="5" cx="502.2" cy="657.28" fill="#132e65"></circle><circle r="5" cx="647.62" cy="497.87" fill="#132e65"></circle><circle r="5" cx="685.57" cy="668.06" fill="#132e65"></circle><circle r="5" cx="792.36" cy="253.75" fill="#132e65"></circle><circle r="5" cx="813.9" cy="358.19" fill="#132e65"></circle><circle r="5" cx="801.89" cy="544.52" fill="#132e65"></circle><circle r="5" cx="847.19" cy="685.46" fill="#132e65"></circle><circle r="5" cx="972.68" cy="-72.28" fill="#132e65"></circle><circle r="5" cx="978.4" cy="72.43" fill="#132e65"></circle><circle r="5" cx="979.05" cy="407.04" fill="#132e65"></circle><circle r="5" cx="954.17" cy="555.97" fill="#132e65"></circle><circle r="5" cx="977.73" cy="688.05" fill="#132e65"></circle><circle r="5" cx="1139.53" cy="-63.47" fill="#132e65"></circle><circle r="5" cx="1131.37" cy="45.39" fill="#132e65"></circle><circle r="5" cx="1130.19" cy="192.03" fill="#132e65"></circle><circle r="5" cx="1161.66" cy="385.96" fill="#132e65"></circle><circle r="5" cx="1119.4" cy="519.25" fill="#132e65"></circle><circle r="5" cx="1094.23" cy="647.91" fill="#132e65"></circle><circle r="5" cx="1267.87" cy="-46.71" fill="#132e65"></circle><circle r="5" cx="1271.89" cy="105.72" fill="#132e65"></circle><circle r="5" cx="1238.22" cy="217.61" fill="#132e65"></circle><circle r="5" cx="1306.3" cy="378.83" fill="#132e65"></circle><circle r="5" cx="1263.19" cy="500.87" fill="#132e65"></circle><circle r="5" cx="1459.3" cy="-69.27" fill="#132e65"></circle><circle r="5" cx="1417.05" cy="82.99" fill="#132e65"></circle><circle r="5" cx="1398.98" cy="188.91" fill="#132e65"></circle><circle r="5" cx="1432.3" cy="395.85" fill="#132e65"></circle><circle r="5" cx="1398.23" cy="535.48" fill="#132e65"></circle><circle r="5" cx="1399.68" cy="711.87" fill="#132e65"></circle><circle r="5" cx="1581.04" cy="-102.6" fill="#132e65"></circle><circle r="5" cx="1602.54" cy="60.45" fill="#132e65"></circle><circle r="5" cx="1598.18" cy="241.86" fill="#132e65"></circle><circle r="5" cx="1611.14" cy="342.85" fill="#132e65"></circle><circle r="5" cx="1567.99" cy="526.45" fill="#132e65"></circle><circle r="5" cx="1578.95" cy="695.79" fill="#132e65"></circle><path d="M81.79 515.13L81.79 515.13" stroke="hsl(228.5, 77.2%, 51.5%)" stroke-width="1.5"></path><path d="M81.79 515.13L52.45 639.25" stroke="hsl(228.5, 77.2%, 51.5%)" stroke-width="1.5"></path><path d="M52.45 639.25L52.45 639.25" stroke="hsl(228.5, 77.2%, 51.5%)" stroke-width="1.5"></path><path d="M52.45 639.25L-52.84 516.81" stroke="hsl(228.5, 77.2%, 51.5%)" stroke-width="1.5"></path><path d="M52.45 639.25L-99.15 697.18" stroke="hsl(228.5, 77.2%, 51.5%)" stroke-width="1.5"></path><path d="M217.57 515.46L217.57 515.46" stroke="hsl(228.5, 77.2%, 51.5%)" stroke-width="1.5"></path><path d="M217.57 515.46L81.79 515.13" stroke="hsl(228.5, 77.2%, 51.5%)" stroke-width="1.5"></path><path d="M217.57 515.46L208.32 696.61" stroke="hsl(228.5, 77.2%, 51.5%)" stroke-width="1.5"></path><path d="M217.57 515.46L400.92 522.77" stroke="hsl(228.5, 77.2%, 51.5%)" stroke-width="1.5"></path><path d="M217.57 515.46L348.58 668.23" stroke="hsl(228.5, 77.2%, 51.5%)" stroke-width="1.5"></path><path d="M535.19 539.86L535.19 539.86" stroke="hsl(228.5, 77.2%, 51.5%)" stroke-width="1.5"></path><path d="M535.19 539.86L510.17 645.95" stroke="hsl(228.5, 77.2%, 51.5%)" stroke-width="1.5"></path><path d="M535.19 539.86L491.83 411.94" stroke="hsl(228.5, 77.2%, 51.5%)" stroke-width="1.5"></path><path d="M535.19 539.86L400.92 522.77" stroke="hsl(228.5, 77.2%, 51.5%)" stroke-width="1.5"></path><path d="M535.19 539.86L686.51 519.15" stroke="hsl(228.5, 77.2%, 51.5%)" stroke-width="1.5"></path><path d="M535.19 539.86L683.75 646.61" stroke="hsl(228.5, 77.2%, 51.5%)" stroke-width="1.5"></path><path d="M510.17 645.95L510.17 645.95" stroke="hsl(228.5, 77.2%, 51.5%)" stroke-width="1.5"></path><path d="M510.17 645.95L348.58 668.23" stroke="hsl(228.5, 77.2%, 51.5%)" stroke-width="1.5"></path><path d="M510.17 645.95L400.92 522.77" stroke="hsl(228.5, 77.2%, 51.5%)" stroke-width="1.5"></path><path d="M510.17 645.95L683.75 646.61" stroke="hsl(228.5, 77.2%, 51.5%)" stroke-width="1.5"></path><path d="M510.17 645.95L686.51 519.15" stroke="hsl(228.5, 77.2%, 51.5%)" stroke-width="1.5"></path><path d="M686.51 519.15L686.51 519.15" stroke="hsl(228.5, 77.2%, 51.5%)" stroke-width="1.5"></path><path d="M686.51 519.15L683.75 646.61" stroke="hsl(228.5, 77.2%, 51.5%)" stroke-width="1.5"></path><path d="M849.83 666.31L849.83 666.31" stroke="hsl(228.5, 77.2%, 51.5%)" stroke-width="1.5"></path><path d="M849.83 666.31L938.2 686.89" stroke="hsl(228.5, 77.2%, 51.5%)" stroke-width="1.5"></path><path d="M849.83 666.31L828.93 521.5" stroke="hsl(228.5, 77.2%, 51.5%)" stroke-width="1.5"></path><path d="M849.83 666.31L683.75 646.61" stroke="hsl(228.5, 77.2%, 51.5%)" stroke-width="1.5"></path><path d="M849.83 666.31L686.51 519.15" stroke="hsl(228.5, 77.2%, 51.5%)" stroke-width="1.5"></path><path d="M849.83 666.31L991.24 489.34" stroke="hsl(228.5, 77.2%, 51.5%)" stroke-width="1.5"></path><path d="M1284.54 495.02L1284.54 495.02" stroke="hsl(228.5, 77.2%, 51.5%)" stroke-width="1.5"></path><path d="M1284.54 495.02L1389.08 513.57" stroke="hsl(228.5, 77.2%, 51.5%)" stroke-width="1.5"></path><path d="M1284.54 495.02L1242.03 371.91" stroke="hsl(228.5, 77.2%, 51.5%)" stroke-width="1.5"></path><path d="M1284.54 495.02L1134.85 512.82" stroke="hsl(228.5, 77.2%, 51.5%)" stroke-width="1.5"></path><path d="M1284.54 495.02L1404.41 353.67" stroke="hsl(228.5, 77.2%, 51.5%)" stroke-width="1.5"></path><path d="M1438.47 188.48L1438.47 188.48" stroke="hsl(228.5, 77.2%, 51.5%)" stroke-width="1.5"></path><path d="M1438.47 188.48L1429.92 83.52" stroke="hsl(228.5, 77.2%, 51.5%)" stroke-width="1.5"></path><path d="M1438.47 188.48L1404.41 353.67" stroke="hsl(228.5, 77.2%, 51.5%)" stroke-width="1.5"></path><path d="M1438.47 188.48L1602.97 238.87" stroke="hsl(228.5, 77.2%, 51.5%)" stroke-width="1.5"></path><path d="M1438.47 188.48L1599.97 106.22" stroke="hsl(228.5, 77.2%, 51.5%)" stroke-width="1.5"></path><path d="M1438.47 188.48L1248.07 237.34" stroke="hsl(228.5, 77.2%, 51.5%)" stroke-width="1.5"></path><path d="M1438.47 188.48L1264.06 73.28" stroke="hsl(228.5, 77.2%, 51.5%)" stroke-width="1.5"></path><path d="M1599.97 106.22L1599.97 106.22" stroke="hsl(228.5, 77.2%, 51.5%)" stroke-width="1.5"></path><path d="M1599.97 106.22L1602.97 238.87" stroke="hsl(228.5, 77.2%, 51.5%)" stroke-width="1.5"></path><path d="M1599.97 106.22L1429.92 83.52" stroke="hsl(228.5, 77.2%, 51.5%)" stroke-width="1.5"></path><path d="M1599.97 106.22L1567.41 -79.29" stroke="hsl(228.5, 77.2%, 51.5%)" stroke-width="1.5"></path><path d="M1557.03 378.18L1557.03 378.18" stroke="hsl(228.5, 77.2%, 51.5%)" stroke-width="1.5"></path><path d="M1557.03 378.18L1604.68 511.35" stroke="hsl(228.5, 77.2%, 51.5%)" stroke-width="1.5"></path><path d="M1557.03 378.18L1602.97 238.87" stroke="hsl(228.5, 77.2%, 51.5%)" stroke-width="1.5"></path><path d="M1557.03 378.18L1404.41 353.67" stroke="hsl(228.5, 77.2%, 51.5%)" stroke-width="1.5"></path><path d="M1557.03 378.18L1389.08 513.57" stroke="hsl(228.5, 77.2%, 51.5%)" stroke-width="1.5"></path><path d="M1557.03 378.18L1438.47 188.48" stroke="hsl(228.5, 77.2%, 51.5%)" stroke-width="1.5"></path><path d="M-52.84 516.81L-52.84 516.81" stroke="hsl(228.5, 77.2%, 51.5%)" stroke-width="1.5"></path><path d="M-52.84 516.81L81.79 515.13" stroke="hsl(228.5, 77.2%, 51.5%)" stroke-width="1.5"></path><path d="M-52.84 516.81L-99.15 697.18" stroke="hsl(228.5, 77.2%, 51.5%)" stroke-width="1.5"></path><path d="M-52.84 516.81L217.57 515.46" stroke="hsl(228.5, 77.2%, 51.5%)" stroke-width="1.5"></path><path d="M-52.84 516.81L208.32 696.61" stroke="hsl(228.5, 77.2%, 51.5%)" stroke-width="1.5"></path><path d="M-52.84 516.81L348.58 668.23" stroke="hsl(228.5, 77.2%, 51.5%)" stroke-width="1.5"></path><path d="M-99.15 697.18L-99.15 697.18" stroke="hsl(228.5, 77.2%, 51.5%)" stroke-width="1.5"></path><path d="M-99.15 697.18L81.79 515.13" stroke="hsl(228.5, 77.2%, 51.5%)" stroke-width="1.5"></path><path d="M-99.15 697.18L208.32 696.61" stroke="hsl(228.5, 77.2%, 51.5%)" stroke-width="1.5"></path><path d="M-99.15 697.18L217.57 515.46" stroke="hsl(228.5, 77.2%, 51.5%)" stroke-width="1.5"></path><path d="M208.32 696.61L208.32 696.61" stroke="hsl(228.5, 77.2%, 51.5%)" stroke-width="1.5"></path><path d="M208.32 696.61L348.58 668.23" stroke="hsl(228.5, 77.2%, 51.5%)" stroke-width="1.5"></path><path d="M208.32 696.61L52.45 639.25" stroke="hsl(228.5, 77.2%, 51.5%)" stroke-width="1.5"></path><path d="M208.32 696.61L81.79 515.13" stroke="hsl(228.5, 77.2%, 51.5%)" stroke-width="1.5"></path><path d="M208.32 696.61L400.92 522.77" stroke="hsl(228.5, 77.2%, 51.5%)" stroke-width="1.5"></path><path d="M208.32 696.61L510.17 645.95" stroke="hsl(228.5, 77.2%, 51.5%)" stroke-width="1.5"></path><path d="M400.92 522.77L400.92 522.77" stroke="hsl(228.5, 77.2%, 51.5%)" stroke-width="1.5"></path><path d="M400.92 522.77L491.83 411.94" stroke="hsl(228.5, 77.2%, 51.5%)" stroke-width="1.5"></path><path d="M400.92 522.77L348.58 668.23" stroke="hsl(228.5, 77.2%, 51.5%)" stroke-width="1.5"></path><path d="M348.58 668.23L348.58 668.23" stroke="hsl(228.5, 77.2%, 51.5%)" stroke-width="1.5"></path><path d="M491.83 411.94L491.83 411.94" stroke="hsl(228.5, 77.2%, 51.5%)" stroke-width="1.5"></path><path d="M491.83 411.94L686.51 519.15" stroke="hsl(228.5, 77.2%, 51.5%)" stroke-width="1.5"></path><path d="M491.83 411.94L510.17 645.95" stroke="hsl(228.5, 77.2%, 51.5%)" stroke-width="1.5"></path><path d="M491.83 411.94L217.57 515.46" stroke="hsl(228.5, 77.2%, 51.5%)" stroke-width="1.5"></path><path d="M491.83 411.94L348.58 668.23" stroke="hsl(228.5, 77.2%, 51.5%)" stroke-width="1.5"></path><path d="M683.75 646.61L683.75 646.61" stroke="hsl(228.5, 77.2%, 51.5%)" stroke-width="1.5"></path><path d="M683.75 646.61L828.93 521.5" stroke="hsl(228.5, 77.2%, 51.5%)" stroke-width="1.5"></path><path d="M831.54 356.34L831.54 356.34" stroke="hsl(228.5, 77.2%, 51.5%)" stroke-width="1.5"></path><path d="M831.54 356.34L979.1 384.24" stroke="hsl(228.5, 77.2%, 51.5%)" stroke-width="1.5"></path><path d="M831.54 356.34L828.93 521.5" stroke="hsl(228.5, 77.2%, 51.5%)" stroke-width="1.5"></path><path d="M831.54 356.34L991.24 489.34" stroke="hsl(228.5, 77.2%, 51.5%)" stroke-width="1.5"></path><path d="M828.93 521.5L828.93 521.5" stroke="hsl(228.5, 77.2%, 51.5%)" stroke-width="1.5"></path><path d="M828.93 521.5L686.51 519.15" stroke="hsl(228.5, 77.2%, 51.5%)" stroke-width="1.5"></path><path d="M828.93 521.5L991.24 489.34" stroke="hsl(228.5, 77.2%, 51.5%)" stroke-width="1.5"></path><path d="M979.1 384.24L979.1 384.24" stroke="hsl(228.5, 77.2%, 51.5%)" stroke-width="1.5"></path><path d="M979.1 384.24L991.24 489.34" stroke="hsl(228.5, 77.2%, 51.5%)" stroke-width="1.5"></path><path d="M979.1 384.24L1119.54 355.56" stroke="hsl(228.5, 77.2%, 51.5%)" stroke-width="1.5"></path><path d="M979.1 384.24L1134.85 512.82" stroke="hsl(228.5, 77.2%, 51.5%)" stroke-width="1.5"></path><path d="M979.1 384.24L828.93 521.5" stroke="hsl(228.5, 77.2%, 51.5%)" stroke-width="1.5"></path><path d="M991.24 489.34L991.24 489.34" stroke="hsl(228.5, 77.2%, 51.5%)" stroke-width="1.5"></path><path d="M991.24 489.34L1134.85 512.82" stroke="hsl(228.5, 77.2%, 51.5%)" stroke-width="1.5"></path><path d="M938.2 686.89L938.2 686.89" stroke="hsl(228.5, 77.2%, 51.5%)" stroke-width="1.5"></path><path d="M938.2 686.89L1129.53 677.29" stroke="hsl(228.5, 77.2%, 51.5%)" stroke-width="1.5"></path><path d="M938.2 686.89L828.93 521.5" stroke="hsl(228.5, 77.2%, 51.5%)" stroke-width="1.5"></path><path d="M938.2 686.89L991.24 489.34" stroke="hsl(228.5, 77.2%, 51.5%)" stroke-width="1.5"></path><path d="M1137.46 199.71L1137.46 199.71" stroke="hsl(228.5, 77.2%, 51.5%)" stroke-width="1.5"></path><path d="M1137.46 199.71L1248.07 237.34" stroke="hsl(228.5, 77.2%, 51.5%)" stroke-width="1.5"></path><path d="M1137.46 199.71L1119.54 355.56" stroke="hsl(228.5, 77.2%, 51.5%)" stroke-width="1.5"></path><path d="M1137.46 199.71L1264.06 73.28" stroke="hsl(228.5, 77.2%, 51.5%)" stroke-width="1.5"></path><path d="M1137.46 199.71L1242.03 371.91" stroke="hsl(228.5, 77.2%, 51.5%)" stroke-width="1.5"></path><path d="M1137.46 199.71L979.1 384.24" stroke="hsl(228.5, 77.2%, 51.5%)" stroke-width="1.5"></path><path d="M1119.54 355.56L1119.54 355.56" stroke="hsl(228.5, 77.2%, 51.5%)" stroke-width="1.5"></path><path d="M1119.54 355.56L1242.03 371.91" stroke="hsl(228.5, 77.2%, 51.5%)" stroke-width="1.5"></path><path d="M1119.54 355.56L1134.85 512.82" stroke="hsl(228.5, 77.2%, 51.5%)" stroke-width="1.5"></path><path d="M1119.54 355.56L1248.07 237.34" stroke="hsl(228.5, 77.2%, 51.5%)" stroke-width="1.5"></path><path d="M1119.54 355.56L991.24 489.34" stroke="hsl(228.5, 77.2%, 51.5%)" stroke-width="1.5"></path><path d="M1134.85 512.82L1134.85 512.82" stroke="hsl(228.5, 77.2%, 51.5%)" stroke-width="1.5"></path><path d="M1134.85 512.82L1129.53 677.29" stroke="hsl(228.5, 77.2%, 51.5%)" stroke-width="1.5"></path><path d="M1129.53 677.29L1129.53 677.29" stroke="hsl(228.5, 77.2%, 51.5%)" stroke-width="1.5"></path><path d="M1272.94 -101.59L1272.94 -101.59" stroke="hsl(228.5, 77.2%, 51.5%)" stroke-width="1.5"></path><path d="M1272.94 -101.59L1403.99 -80.11" stroke="hsl(228.5, 77.2%, 51.5%)" stroke-width="1.5"></path><path d="M1272.94 -101.59L1264.06 73.28" stroke="hsl(228.5, 77.2%, 51.5%)" stroke-width="1.5"></path><path d="M1272.94 -101.59L1429.92 83.52" stroke="hsl(228.5, 77.2%, 51.5%)" stroke-width="1.5"></path><path d="M1272.94 -101.59L1567.41 -79.29" stroke="hsl(228.5, 77.2%, 51.5%)" stroke-width="1.5"></path><path d="M1272.94 -101.59L1137.46 199.71" stroke="hsl(228.5, 77.2%, 51.5%)" stroke-width="1.5"></path><path d="M1264.06 73.28L1264.06 73.28" stroke="hsl(228.5, 77.2%, 51.5%)" stroke-width="1.5"></path><path d="M1264.06 73.28L1248.07 237.34" stroke="hsl(228.5, 77.2%, 51.5%)" stroke-width="1.5"></path><path d="M1264.06 73.28L1429.92 83.52" stroke="hsl(228.5, 77.2%, 51.5%)" stroke-width="1.5"></path><path d="M1248.07 237.34L1248.07 237.34" stroke="hsl(228.5, 77.2%, 51.5%)" stroke-width="1.5"></path><path d="M1248.07 237.34L1242.03 371.91" stroke="hsl(228.5, 77.2%, 51.5%)" stroke-width="1.5"></path><path d="M1248.07 237.34L1404.41 353.67" stroke="hsl(228.5, 77.2%, 51.5%)" stroke-width="1.5"></path><path d="M1242.03 371.91L1242.03 371.91" stroke="hsl(228.5, 77.2%, 51.5%)" stroke-width="1.5"></path><path d="M1311.99 702.41L1311.99 702.41" stroke="hsl(228.5, 77.2%, 51.5%)" stroke-width="1.5"></path><path d="M1311.99 702.41L1426.85 653.7" stroke="hsl(228.5, 77.2%, 51.5%)" stroke-width="1.5"></path><path d="M1311.99 702.41L1129.53 677.29" stroke="hsl(228.5, 77.2%, 51.5%)" stroke-width="1.5"></path><path d="M1311.99 702.41L1389.08 513.57" stroke="hsl(228.5, 77.2%, 51.5%)" stroke-width="1.5"></path><path d="M1311.99 702.41L1284.54 495.02" stroke="hsl(228.5, 77.2%, 51.5%)" stroke-width="1.5"></path><path d="M1311.99 702.41L1134.85 512.82" stroke="hsl(228.5, 77.2%, 51.5%)" stroke-width="1.5"></path><path d="M1311.99 702.41L1608.33 644.92" stroke="hsl(228.5, 77.2%, 51.5%)" stroke-width="1.5"></path><path d="M1403.99 -80.11L1403.99 -80.11" stroke="hsl(228.5, 77.2%, 51.5%)" stroke-width="1.5"></path><path d="M1403.99 -80.11L1567.41 -79.29" stroke="hsl(228.5, 77.2%, 51.5%)" stroke-width="1.5"></path><path d="M1403.99 -80.11L1429.92 83.52" stroke="hsl(228.5, 77.2%, 51.5%)" stroke-width="1.5"></path><path d="M1403.99 -80.11L1264.06 73.28" stroke="hsl(228.5, 77.2%, 51.5%)" stroke-width="1.5"></path><path d="M1403.99 -80.11L1599.97 106.22" stroke="hsl(228.5, 77.2%, 51.5%)" stroke-width="1.5"></path><path d="M1429.92 83.52L1429.92 83.52" stroke="hsl(228.5, 77.2%, 51.5%)" stroke-width="1.5"></path><path d="M1404.41 353.67L1404.41 353.67" stroke="hsl(228.5, 77.2%, 51.5%)" stroke-width="1.5"></path><path d="M1404.41 353.67L1389.08 513.57" stroke="hsl(228.5, 77.2%, 51.5%)" stroke-width="1.5"></path><path d="M1404.41 353.67L1242.03 371.91" stroke="hsl(228.5, 77.2%, 51.5%)" stroke-width="1.5"></path><path d="M1389.08 513.57L1389.08 513.57" stroke="hsl(228.5, 77.2%, 51.5%)" stroke-width="1.5"></path><path d="M1389.08 513.57L1426.85 653.7" stroke="hsl(228.5, 77.2%, 51.5%)" stroke-width="1.5"></path><path d="M1426.85 653.7L1426.85 653.7" stroke="hsl(228.5, 77.2%, 51.5%)" stroke-width="1.5"></path><path d="M1426.85 653.7L1608.33 644.92" stroke="hsl(228.5, 77.2%, 51.5%)" stroke-width="1.5"></path><path d="M1426.85 653.7L1284.54 495.02" stroke="hsl(228.5, 77.2%, 51.5%)" stroke-width="1.5"></path><path d="M1426.85 653.7L1604.68 511.35" stroke="hsl(228.5, 77.2%, 51.5%)" stroke-width="1.5"></path><path d="M1426.85 653.7L1129.53 677.29" stroke="hsl(228.5, 77.2%, 51.5%)" stroke-width="1.5"></path><path d="M1567.41 -79.29L1567.41 -79.29" stroke="hsl(228.5, 77.2%, 51.5%)" stroke-width="1.5"></path><path d="M1567.41 -79.29L1429.92 83.52" stroke="hsl(228.5, 77.2%, 51.5%)" stroke-width="1.5"></path><path d="M1602.97 238.87L1602.97 238.87" stroke="hsl(228.5, 77.2%, 51.5%)" stroke-width="1.5"></path><path d="M1602.97 238.87L1404.41 353.67" stroke="hsl(228.5, 77.2%, 51.5%)" stroke-width="1.5"></path><path d="M1602.97 238.87L1429.92 83.52" stroke="hsl(228.5, 77.2%, 51.5%)" stroke-width="1.5"></path><path d="M1604.68 511.35L1604.68 511.35" stroke="hsl(228.5, 77.2%, 51.5%)" stroke-width="1.5"></path><path d="M1604.68 511.35L1608.33 644.92" stroke="hsl(228.5, 77.2%, 51.5%)" stroke-width="1.5"></path><path d="M1604.68 511.35L1389.08 513.57" stroke="hsl(228.5, 77.2%, 51.5%)" stroke-width="1.5"></path><path d="M1608.33 644.92L1608.33 644.92" stroke="hsl(228.5, 77.2%, 51.5%)" stroke-width="1.5"></path><circle r="25" cx="81.79" cy="515.13" fill="url(&quot;#SvgjsRadialGradient1001&quot;)"></circle><circle r="25" cx="52.45" cy="639.25" fill="url(&quot;#SvgjsRadialGradient1001&quot;)"></circle><circle r="25" cx="217.57" cy="515.46" fill="url(&quot;#SvgjsRadialGradient1001&quot;)"></circle><circle r="25" cx="535.19" cy="539.86" fill="url(&quot;#SvgjsRadialGradient1001&quot;)"></circle><circle r="25" cx="510.17" cy="645.95" fill="url(&quot;#SvgjsRadialGradient1001&quot;)"></circle><circle r="25" cx="686.51" cy="519.15" fill="url(&quot;#SvgjsRadialGradient1001&quot;)"></circle><circle r="25" cx="849.83" cy="666.31" fill="url(&quot;#SvgjsRadialGradient1001&quot;)"></circle><circle r="25" cx="1284.54" cy="495.02" fill="url(&quot;#SvgjsRadialGradient1001&quot;)"></circle><circle r="25" cx="1438.47" cy="188.48" fill="url(&quot;#SvgjsRadialGradient1001&quot;)"></circle><circle r="25" cx="1599.97" cy="106.22" fill="url(&quot;#SvgjsRadialGradient1001&quot;)"></circle><circle r="25" cx="1557.03" cy="378.18" fill="url(&quot;#SvgjsRadialGradient1001&quot;)"></circle><circle r="5" cx="-52.84" cy="516.81" fill="#8b9ad9"></circle><circle r="5" cx="-99.15" cy="697.18" fill="#8b9ad9"></circle><circle r="5" cx="208.32" cy="696.61" fill="#8b9ad9"></circle><circle r="5" cx="400.92" cy="522.77" fill="#8b9ad9"></circle><circle r="5" cx="348.58" cy="668.23" fill="#8b9ad9"></circle><circle r="5" cx="491.83" cy="411.94" fill="#8b9ad9"></circle><circle r="5" cx="683.75" cy="646.61" fill="#8b9ad9"></circle><circle r="5" cx="831.54" cy="356.34" fill="#8b9ad9"></circle><circle r="5" cx="828.93" cy="521.5" fill="#8b9ad9"></circle><circle r="5" cx="979.1" cy="384.24" fill="#8b9ad9"></circle><circle r="5" cx="991.24" cy="489.34" fill="#8b9ad9"></circle><circle r="5" cx="938.2" cy="686.89" fill="#8b9ad9"></circle><circle r="5" cx="1137.46" cy="199.71" fill="#8b9ad9"></circle><circle r="5" cx="1119.54" cy="355.56" fill="#8b9ad9"></circle><circle r="5" cx="1134.85" cy="512.82" fill="#8b9ad9"></circle><circle r="5" cx="1129.53" cy="677.29" fill="#8b9ad9"></circle><circle r="5" cx="1272.94" cy="-101.59" fill="#8b9ad9"></circle><circle r="5" cx="1264.06" cy="73.28" fill="#8b9ad9"></circle><circle r="5" cx="1248.07" cy="237.34" fill="#8b9ad9"></circle><circle r="5" cx="1242.03" cy="371.91" fill="#8b9ad9"></circle><circle r="5" cx="1311.99" cy="702.41" fill="#8b9ad9"></circle><circle r="5" cx="1403.99" cy="-80.11" fill="#8b9ad9"></circle><circle r="5" cx="1429.92" cy="83.52" fill="#8b9ad9"></circle><circle r="5" cx="1404.41" cy="353.67" fill="#8b9ad9"></circle><circle r="5" cx="1389.08" cy="513.57" fill="#8b9ad9"></circle><circle r="5" cx="1426.85" cy="653.7" fill="#8b9ad9"></circle><circle r="5" cx="1567.41" cy="-79.29" fill="#8b9ad9"></circle><circle r="5" cx="1602.97" cy="238.87" fill="#8b9ad9"></circle><circle r="5" cx="1604.68" cy="511.35" fill="#8b9ad9"></circle><circle r="5" cx="1608.33" cy="644.92" fill="#8b9ad9"></circle></g><defs><mask id="SvgjsMask1000"><rect width="1440" height="560" fill="#ffffff"></rect></mask><radialGradient id="SvgjsRadialGradient1001"><stop stop-color="#ffffff" offset="0.1"></stop><stop stop-color="#1735b3" offset="0.2"></stop><stop stop-color="rgba(23, 53, 179, 0)" offset="1"></stop></radialGradient></defs></svg>